<svg width="38" height="39" viewBox="0 0 38 39" fill="none" xmlns="http://www.w3.org/2000/svg">
<path d="M19 14.8314L29 11.2747M19 14.8314L9 11.2747M19 14.8314V29.7692M29 1H33C35.2092 1 37 2.84006 37 5.10989V9.21978M29 37.989H33C35.2092 37.989 37 36.149 37 33.8791V29.7692M9 1H5C2.79086 1 1 2.84006 1 5.10989V9.21978M9 37.989H5C2.79086 37.989 1 36.149 1 33.8791V29.7692M20.2972 7.62183L28.2972 10.44C29.914 11.0096 31 12.5717 31 14.3278V23.5477C31 25.1561 30.0868 26.6167 28.663 27.2854L20.663 31.0431C19.607 31.5392 18.393 31.5392 17.337 31.0431L9.33696 27.2854C7.91322 26.6167 7 25.1561 7 23.5477V14.3278C7 12.5717 8.08594 11.0096 9.7027 10.44L17.7028 7.62183C18.5436 7.32563 19.4564 7.32563 20.2972 7.62183Z" stroke="#FF0101" stroke-width="2" stroke-linecap="round"/>
</svg>
