<svg width="38" height="27" viewBox="0 0 38 27" fill="none" xmlns="http://www.w3.org/2000/svg">
<path d="M36.4672 11.5804C37.1776 12.6633 37.1776 14.0227 36.4672 15.1056C34.2299 18.516 28.4075 25.686 19 25.686C9.59259 25.686 3.77019 18.516 1.53277 15.1056C0.82241 14.0227 0.82241 12.6633 1.53277 11.5804C3.77019 8.16995 9.59259 1 19 1C28.4075 1 34.2299 8.16995 36.4672 11.5804Z" stroke="#FF0000" stroke-width="2" stroke-linecap="round"/>
<path d="M25.1716 13.3429C25.1716 16.7514 22.4084 19.5144 19.0001 19.5144C15.5915 19.5144 12.8285 16.7514 12.8285 13.3429C12.8285 9.93437 15.5915 7.17139 19.0001 7.17139C22.4084 7.17139 25.1716 9.93437 25.1716 13.3429Z" stroke="#FF0000" stroke-width="2" stroke-linecap="round"/>
</svg>
