<svg width="34" height="34" viewBox="0 0 34 34" fill="none" xmlns="http://www.w3.org/2000/svg">
<path d="M11.6667 11.534C8.92 11.5415 6.84674 11.579 6.33333 11.6667C3.38782 11.6667 1 9.27884 1 6.33333C1 3.38782 3.38782 1 6.33333 1C9.27884 1 11.6667 3.38782 11.6667 6.33333V11.534ZM11.6667 11.534C14.7865 11.5256 18.7749 11.556 22.3333 11.5959M11.6667 11.534V22.3333M22.3333 11.5959C24.3207 11.6182 26.1739 11.6435 27.6667 11.6667C30.6123 11.6667 33 9.27884 33 6.33333C33 3.38782 30.6123 1 27.6667 1C24.7211 1 22.3333 3.38782 22.3333 6.33333V11.5959ZM22.3333 11.5959V22.3333M11.6667 22.3333H22.3333M11.6667 22.3333H6.33333C3.38782 22.3333 1 24.7211 1 27.6667C1 30.6123 3.38782 33 6.33333 33C9.27884 33 11.6667 30.6123 11.6667 27.6667V22.3333ZM22.3333 22.3333V27.6667C22.3333 30.6123 24.7211 33 27.6667 33C30.6123 33 33 30.6123 33 27.6667C33 24.7211 30.6123 22.3333 27.6667 22.3333H22.3333Z" stroke="#FF0000" stroke-width="2" stroke-linecap="round"/>
</svg>
