<svg width="36" height="38" viewBox="0 0 36 38" fill="none" xmlns="http://www.w3.org/2000/svg">
<path d="M29.8485 10.3913V2.04348C29.8485 1.46719 29.3871 1 28.8182 1H25.7273C25.1583 1 24.697 1.46719 24.697 2.04348V7.26087M12.373 1.61978L3.82643 4.48428C2.13925 5.04976 1 6.64695 1 8.44685V32.8261C1 35.1313 2.84513 37 5.12121 37H30.8788C33.1549 37 35 35.1313 35 32.8261V16.595C35 15.1629 34.2753 13.831 33.0799 13.0662L15.8689 2.05368C14.8265 1.38661 13.5437 1.22742 12.373 1.61978ZM10.2727 18.2174H13.3636C13.9326 18.2174 14.3939 17.7501 14.3939 17.1739V14.0435C14.3939 13.4672 13.9326 13 13.3636 13H10.2727C9.70371 13 9.24242 13.4672 9.24242 14.0435V17.1739C9.24242 17.7501 9.70371 18.2174 10.2727 18.2174ZM27.7879 36.4783V22.913C27.7879 22.3368 27.3265 21.8696 26.7576 21.8696H21.6061C21.0371 21.8696 20.5758 22.3368 20.5758 22.913V36.4783H27.7879Z" stroke="#FF0000" stroke-width="2" stroke-linecap="round"/>
</svg>
