<svg width="36" height="40" viewBox="0 0 36 40" fill="none" xmlns="http://www.w3.org/2000/svg">
<path d="M18 33C16.6702 33 15.5424 33.8654 15.149 35.0636M18 33C19.3298 33 20.4576 33.8654 20.851 35.0636M18 33V23M15.149 35.0636C15.0524 35.3582 15 35.673 15 36C15 37.6568 16.3432 39 18 39C19.6568 39 21 37.6568 21 36C21 35.673 20.9476 35.3582 20.851 35.0636M15.149 35.0636L5.52954 30.5814M20.851 35.0636L30.4704 30.5814M18 23C16.846 23 15.8442 22.3484 15.3424 21.393M18 23C19.154 23 20.1558 22.3484 20.6576 21.393M18 7C16.6154 7 15.4498 6.06194 15.1042 4.78664M18 7C19.3846 7 20.5502 6.06194 20.8958 4.78664M18 7V17M15.1042 4.78664L6.1559 7.91384M15.1042 4.78664C15.0362 4.53594 15 4.2722 15 4C15 2.34314 16.3432 1 18 1C19.6568 1 21 2.34314 21 4C21 4.2722 20.9638 4.53594 20.8958 4.78664M20.8958 4.78664L29.844 7.91384M18 17C19.0218 17 19.9244 17.511 20.4662 18.2912M18 17C16.9782 17 16.0756 17.511 15.5338 18.2912M5.52954 30.5814C6.40992 30.0586 7 29.0982 7 28C7 27.286 6.75054 26.6302 6.33402 26.115M5.52954 30.5814C5.08166 30.8472 4.55866 31 4 31C2.34314 31 1 29.6568 1 28C1 27.1116 1.38626 26.3132 2 25.7638M30.4704 30.5814C30.9184 30.8472 31.4414 31 32 31C33.6568 31 35 29.6568 35 28C35 27.1116 34.6138 26.3132 34 25.7638M30.4704 30.5814C29.59 30.0586 29 29.0982 29 28C29 27.286 29.2494 26.6302 29.666 26.115M6.33402 26.115C5.78404 25.435 4.94282 25 4 25C3.23164 25 2.53076 25.2888 2 25.7638M6.33402 26.115L15.3424 21.393M2 25.7638V12.2361M2 12.2361C2.53076 12.7111 3.23164 13 4 13C4.9333 13 5.76704 12.5738 6.31726 11.9055M2 12.2361C1.38626 11.6868 1 10.8885 1 10C1 8.34314 2.34314 7 4 7C4.84616 7 5.6105 7.35032 6.1559 7.91384M6.31726 11.9055C6.74384 11.3873 7 10.7236 7 10C7 9.1893 6.67844 8.45372 6.1559 7.91384M6.31726 11.9055L15.5338 18.2912M15.5338 18.2912C15.1972 18.7762 15 19.365 15 20C15 20.5028 15.1238 20.9768 15.3424 21.393M29.844 7.91384C29.3216 8.45372 29 9.1893 29 10C29 10.7236 29.2562 11.3873 29.6828 11.9055M29.844 7.91384C30.3894 7.35032 31.1538 7 32 7C33.6568 7 35 8.34314 35 10C35 10.8885 34.6138 11.6868 34 12.2361M29.6828 11.9055C30.233 12.5738 31.0668 13 32 13C32.7684 13 33.4692 12.7111 34 12.2361M29.6828 11.9055L20.4662 18.2912M34 12.2361V25.7638M34 25.7638C33.4692 25.2888 32.7684 25 32 25C31.0572 25 30.216 25.435 29.666 26.115M29.666 26.115L20.6576 21.393M20.6576 21.393C20.8762 20.9768 21 20.5028 21 20C21 19.365 20.8028 18.7762 20.4662 18.2912" stroke="#FF0000" stroke-width="2" stroke-linecap="round"/>
</svg>
