<svg width="21" height="20" viewBox="0 0 21 20" fill="none" xmlns="http://www.w3.org/2000/svg">
<path d="M1.5 10.168C1.5 14.2309 4.20534 17.6607 7.90044 18.8354C8.49428 19.0242 9.0605 18.55 9.0605 17.9269V13.2006C9.0605 12.9245 8.8367 12.7006 8.5605 12.7006H7.31055C7.0344 12.7006 6.81055 12.4768 6.81055 12.2006V10.6679C6.81055 10.3918 7.0344 10.1679 7.31055 10.1679H8.5605C8.8367 10.1679 9.0605 9.9441 9.0605 9.6679V8.178C9.0605 5.91669 10.5005 4.65036 12.5705 4.65036C13.0612 4.65036 13.6065 4.70523 14.1213 4.77223C14.3679 4.80432 14.5505 5.01591 14.5505 5.2646V6.6378C14.5505 6.91394 14.3267 7.1378 14.0505 7.1378H13.3805C12.3005 7.1378 12.0305 7.68051 12.0305 8.4041V9.6679C12.0305 9.9441 12.2544 10.1679 12.5305 10.1679H13.8292C14.1369 10.1679 14.3715 10.4431 14.323 10.7469L14.0779 12.2796C14.0391 12.5221 13.8298 12.7006 13.5841 12.7006H12.5282C12.253 12.7006 12.0295 12.923 12.0282 13.1982L12.0057 17.9211C12.0027 18.5462 12.5701 19.0235 13.1655 18.8332C16.8478 17.6564 19.5 14.2284 19.5 10.168C19.5 5.19315 15.45 1.1228 10.5 1.1228C5.55 1.1228 1.5 5.19315 1.5 10.168Z" stroke="white" stroke-width="1.25" stroke-linecap="round"/>
</svg>
