<svg width="19" height="19" viewBox="0 0 19 19" fill="none" xmlns="http://www.w3.org/2000/svg">
<path d="M17.2632 15.7353C18 14.5329 18 12.8962 18 9.6228C18 6.34937 18 4.71265 17.2632 3.51031C16.8509 2.83753 16.2853 2.27188 15.6125 1.8596C14.4101 1.1228 12.7734 1.1228 9.5 1.1228C6.22657 1.1228 4.58985 1.1228 3.38751 1.8596C2.71473 2.27188 2.14908 2.83753 1.7368 3.51031C1 4.71265 1 6.34937 1 9.6228C1 12.8962 1 14.5329 1.7368 15.7353C2.14908 16.4081 2.71473 16.9737 3.38751 17.386C4.58985 18.1228 6.22657 18.1228 9.5 18.1228C12.7734 18.1228 14.4101 18.1228 15.6125 17.386C16.2853 16.9737 16.8509 16.4081 17.2632 15.7353Z" stroke="white" stroke-width="1.25" stroke-linecap="round"/>
<path d="M15 4.6228C15 4.89894 14.7761 5.1228 14.5 5.1228C14.2239 5.1228 14 4.89894 14 4.6228C14 4.34666 14.2239 4.1228 14.5 4.1228C14.7761 4.1228 15 4.34666 15 4.6228Z" stroke="white" stroke-width="1.25" stroke-linecap="round"/>
<path d="M13.5 9.6228C13.5 11.8319 11.7091 13.6228 9.5 13.6228C7.29086 13.6228 5.5 11.8319 5.5 9.6228C5.5 7.41366 7.29086 5.6228 9.5 5.6228C11.7091 5.6228 13.5 7.41366 13.5 9.6228Z" stroke="white" stroke-width="1.25" stroke-linecap="round"/>
</svg>
